<svg width="125" height="45" viewBox="0 0 125 45" fill="none" xmlns="http://www.w3.org/2000/svg">
<g clip-path="url(#clip0_45_2157)">
<path d="M9.79992 24.8691C10.3601 25.8027 10.858 26.6041 11.2938 27.2732C11.2938 26.5107 11.2938 25.6627 11.2938 24.729C11.2938 23.7954 11.2938 22.8617 11.2938 21.9281C11.2938 20.9945 11.2938 20.1075 11.2938 19.2672C11.3093 18.4269 11.3327 17.7267 11.3638 17.1665C11.3793 16.7619 11.496 16.4196 11.7139 16.1395C11.9317 15.8594 12.4064 15.7193 13.1377 15.7193C13.5423 15.7193 13.8691 15.7583 14.118 15.8361C14.367 15.9139 14.5537 16.015 14.6782 16.1395C14.8183 16.264 14.9039 16.4196 14.935 16.6063C14.9817 16.7775 15.005 16.9564 15.005 17.1432C15.005 18.248 14.9894 19.4695 14.9583 20.8077C14.9427 22.1304 14.9116 23.4608 14.865 24.7991C14.8183 26.1373 14.7639 27.4133 14.7016 28.627C14.6393 29.8408 14.5771 30.8678 14.5148 31.7081C14.4682 32.1749 14.2736 32.5406 13.9313 32.8051C13.589 33.0852 13.1221 33.233 12.5308 33.2486C12.0796 33.2642 11.7372 33.1942 11.5038 33.0385C11.2704 32.8828 11.0214 32.634 10.7569 32.2916C10.4146 31.8248 9.99442 31.1868 9.49648 30.3776C8.99854 29.5684 8.46947 28.697 7.90928 27.7634C7.3491 26.8142 6.78891 25.8494 6.22872 24.8691C5.6841 23.8888 5.19393 23.0018 4.75822 22.2082C4.72711 22.9395 4.69598 23.7565 4.66486 24.659C4.63374 25.5615 4.59484 26.4563 4.54815 27.3433C4.51704 28.2302 4.47813 29.0628 4.43145 29.8408C4.38477 30.6033 4.33031 31.2256 4.26806 31.7081C4.20581 32.1749 4.05021 32.5561 3.80124 32.8518C3.55226 33.1475 3.13212 33.2796 2.54081 33.2486C2.01174 33.2175 1.63051 33.0462 1.3971 32.7351C1.17925 32.4239 1.05476 32.0192 1.02364 31.5213C0.976954 30.4009 0.953613 29.1872 0.953613 27.8801C0.953613 26.5574 0.961393 25.2348 0.976954 23.9121C0.992516 22.5739 1.01586 21.2901 1.04698 20.0608C1.0781 18.8159 1.10922 17.7111 1.14034 16.7464C1.17146 16.3885 1.29595 16.1317 1.5138 15.9761C1.73165 15.8049 2.12067 15.7193 2.68086 15.7193C3.25661 15.7193 3.70787 15.766 4.03465 15.8594C4.37699 15.9372 4.65708 16.1551 4.87493 16.5129C5.32619 17.2443 5.83192 18.0924 6.39211 19.0571C6.9523 20.0063 7.52026 20.9789 8.09601 21.9748C8.68732 22.9707 9.2553 23.9354 9.79992 24.8691ZM29.1083 29.3739C28.7815 30.1519 28.3226 30.8211 27.7312 31.3813C27.1399 31.9415 26.4241 32.3772 25.5838 32.6884C24.7435 33.0152 23.8099 33.1863 22.7829 33.2019C21.8959 33.2175 21.0479 33.0775 20.2387 32.7817C19.4451 32.5017 18.7448 32.0971 18.138 31.568C17.5311 31.0389 17.0409 30.4087 16.6675 29.6774C16.294 28.9461 16.0839 28.1446 16.0373 27.2732C15.9906 26.3551 16.0996 25.4915 16.364 24.6824C16.6441 23.8576 17.0643 23.1418 17.6245 22.535C18.1847 21.9125 18.8772 21.4146 19.7018 21.0411C20.5266 20.6521 21.4758 20.4343 22.5495 20.3876C23.6544 20.3409 24.6424 20.4732 25.5138 20.7844C26.4007 21.0956 27.1477 21.5469 27.7545 22.1382C28.3614 22.7139 28.8205 23.3986 29.1317 24.1922C29.4584 24.9858 29.6218 25.8416 29.6218 26.7597C29.6218 27.709 29.4507 28.5803 29.1083 29.3739ZM24.2067 29.584C24.5801 29.3973 24.8914 29.1561 25.1403 28.8604C25.405 28.5647 25.5994 28.2225 25.7239 27.8334C25.8484 27.4444 25.9028 27.0243 25.8872 26.573C25.8562 26.1062 25.7472 25.6938 25.5605 25.3359C25.3893 24.9625 25.1482 24.6512 24.8369 24.4023C24.5413 24.1533 24.1912 23.9743 23.7865 23.8654C23.3976 23.7409 22.9775 23.702 22.5261 23.7487C21.6391 23.8265 20.9234 24.1533 20.3787 24.729C19.8498 25.3048 19.5851 26.0361 19.5851 26.9231C19.5851 27.3744 19.6708 27.7945 19.8419 28.1835C20.0131 28.557 20.2466 28.876 20.5421 29.1405C20.8378 29.405 21.1879 29.6073 21.5925 29.7474C21.9971 29.8874 22.4406 29.9419 22.9229 29.9108C23.4053 29.8797 23.8332 29.7707 24.2067 29.584ZM41.8266 33.0152C41.6087 33.0152 41.4686 32.9295 41.4065 32.7584C41.3286 32.4939 41.2508 32.2372 41.1731 31.9881C41.0952 31.7391 41.0018 31.4436 40.893 31.1012C40.7063 31.3969 40.465 31.6691 40.1694 31.9181C39.8893 32.1671 39.5703 32.3849 39.2124 32.5717C38.87 32.7584 38.4966 32.9062 38.092 33.0152C37.703 33.1396 37.3218 33.2096 36.9483 33.2252C36.1235 33.2719 35.3299 33.1552 34.5675 32.8751C33.805 32.595 33.1358 32.1749 32.5602 31.6147C32 31.0545 31.5486 30.3776 31.2064 29.584C30.8796 28.7748 30.724 27.8724 30.7396 26.8764C30.755 25.8027 30.9418 24.8535 31.2998 24.0288C31.6576 23.2041 32.1322 22.5116 32.7236 21.9514C33.3148 21.3913 33.9917 20.9789 34.7543 20.7144C35.5166 20.4343 36.3102 20.3176 37.1351 20.3642C38.022 20.4109 38.7611 20.5977 39.3525 20.9244C39.9593 21.2512 40.3716 21.6869 40.5896 22.2315L40.7063 21.1345C40.7529 20.7455 40.8851 20.5276 41.1031 20.4809C41.601 20.4031 42.0522 20.3642 42.4568 20.3642C42.8614 20.3642 43.3049 20.4031 43.7873 20.4809C44.1451 20.5587 44.3319 20.87 44.3475 21.4146C44.3629 21.9592 44.3708 22.5272 44.3708 23.1185C44.3863 23.6943 44.3942 24.27 44.3942 24.8457C44.3942 26.2929 44.3786 27.6778 44.3475 29.0005C44.3163 30.3076 44.2775 31.3813 44.2308 32.2216C44.2152 32.486 44.1295 32.6807 43.974 32.8051C43.834 32.9451 43.6473 33.0152 43.4138 33.0152H41.8266ZM39.0957 29.584C39.438 29.4129 39.7259 29.1949 39.9593 28.9305C40.2082 28.6504 40.4028 28.3313 40.5429 27.9735C40.6829 27.6 40.7529 27.1876 40.7529 26.7364C40.7373 25.8494 40.465 25.1336 39.936 24.589C39.4225 24.0444 38.6989 23.7409 37.7653 23.6787C37.2672 23.6476 36.8083 23.7098 36.3881 23.8654C35.968 24.0055 35.5945 24.2155 35.2678 24.4956C34.9565 24.7757 34.7076 25.1181 34.5208 25.5226C34.3496 25.9117 34.2641 26.3474 34.2641 26.8297C34.2641 27.3899 34.3575 27.8878 34.5442 28.3236C34.7309 28.7437 34.9954 29.0861 35.3378 29.3506C35.68 29.6151 36.0768 29.8018 36.5282 29.9108C36.995 30.0198 37.5006 30.0275 38.0454 29.9341C38.4188 29.8718 38.7689 29.7551 39.0957 29.584ZM49.3581 32.7351C49.1403 33.0618 48.7046 33.233 48.051 33.2486C47.4597 33.2796 47.0396 33.1552 46.7906 32.8751C46.5416 32.595 46.3938 32.2059 46.3471 31.7081C46.2693 30.8678 46.1993 29.8251 46.137 28.5803C46.0903 27.3355 46.0437 26.0206 45.997 24.6357C45.9503 23.2508 45.9113 21.8581 45.8803 20.4576C45.8647 19.0571 45.8569 17.7967 45.8569 16.6763C45.8569 16.4896 45.8725 16.3107 45.9036 16.1395C45.9503 15.9683 46.0359 15.8205 46.1604 15.696C46.2848 15.5715 46.4715 15.4704 46.7206 15.3926C46.9696 15.3148 47.2963 15.2681 47.7009 15.2525C48.4322 15.2214 48.9457 15.3381 49.2414 15.6026C49.5371 15.8672 49.7005 16.2095 49.7316 16.6297C49.7626 17.5166 49.7705 18.3958 49.7549 19.2672C49.7549 20.1386 49.7626 21.0489 49.7782 21.9981C50.0427 21.5935 50.5018 21.2356 51.1554 20.9244C51.8089 20.6132 52.5869 20.4265 53.4895 20.3642C54.9677 20.2709 56.127 20.6132 56.9673 21.3913C57.8076 22.1537 58.2434 23.2508 58.2744 24.6824C58.29 25.3359 58.29 26.0206 58.2744 26.7364C58.2588 27.4522 58.2278 28.1525 58.1811 28.8371C58.15 29.5063 58.0954 30.1365 58.0177 30.7277C57.9554 31.3035 57.8699 31.7937 57.7609 32.1982C57.6676 32.525 57.4731 32.7974 57.1774 33.0152C56.8973 33.233 56.5082 33.3263 56.0103 33.2953C55.5902 33.2642 55.2557 33.1552 55.0067 32.9685C54.7576 32.7974 54.6332 32.4627 54.6332 31.9648C54.6176 30.9378 54.6021 29.9497 54.5865 29.0005C54.5865 28.0358 54.5865 27.0554 54.5865 26.0595C54.5865 25.3126 54.3687 24.7524 53.933 24.3789C53.4972 23.9899 52.9293 23.8032 52.2291 23.8187C51.6066 23.8343 51.0464 24.0132 50.5485 24.3556C50.0506 24.6979 49.7939 25.1881 49.7782 25.8261C49.7472 26.7753 49.7393 27.7478 49.7549 28.7437C49.786 29.7241 49.7782 30.65 49.7316 31.5213C49.7005 32.0192 49.5759 32.4239 49.3581 32.7351ZM63.8238 18.2169C63.7927 18.7615 63.6215 19.1505 63.3103 19.3839C63.0146 19.6018 62.5634 19.7107 61.9565 19.7107C61.3496 19.7107 60.8905 19.6018 60.5794 19.3839C60.2837 19.1505 60.1203 18.7615 60.0892 18.2169C60.0581 17.8123 60.0192 17.3299 59.9725 16.7697C59.9414 16.1939 59.9181 15.7038 59.9025 15.2992C59.8869 14.8635 60.0192 14.5134 60.2993 14.2489C60.595 13.9843 61.1473 13.8521 61.9565 13.8521C62.7657 13.8521 63.3103 13.9843 63.5904 14.2489C63.8861 14.5134 64.0261 14.8635 64.0105 15.2992C63.9949 15.7038 63.9638 16.1939 63.9172 16.7697C63.8861 17.3299 63.8549 17.8123 63.8238 18.2169ZM67.1572 32.3383C66.8304 32.1671 66.5737 31.9725 66.3869 31.7547C66.0602 31.428 65.8812 31.0778 65.8501 30.7044C65.819 30.3309 65.9512 29.9652 66.2469 29.6073C66.5426 29.2495 66.8227 29.0628 67.0872 29.0472C67.3673 29.0161 67.6084 29.0628 67.8108 29.1872C68.5266 29.5917 69.2579 29.8718 70.0048 30.0275C70.7517 30.1831 71.4753 30.2298 72.1756 30.1675C72.3156 30.1519 72.44 30.1052 72.549 30.0275C72.6735 29.9497 72.7514 29.8485 72.7824 29.7241C72.8291 29.4283 72.728 29.2262 72.479 29.1172C71.8254 28.8527 71.1096 28.6037 70.3316 28.3703C69.5536 28.1212 68.7911 27.8411 68.0442 27.53C67.235 27.2032 66.5893 26.7364 66.1069 26.1295C65.64 25.5226 65.4456 24.7679 65.5233 23.8654C65.6167 22.8384 66.1225 22.0137 67.0405 21.3913C67.9585 20.7688 69.1646 20.4265 70.6584 20.3642C71.1563 20.3487 71.6698 20.372 72.1989 20.4343C72.728 20.4965 73.2259 20.5977 73.6927 20.7377C74.1752 20.8622 74.6108 21.0178 74.9998 21.2045C75.4044 21.3913 75.7157 21.5858 75.9335 21.7881C76.2447 22.0993 76.4314 22.4416 76.4937 22.8151C76.556 23.1885 76.4859 23.5542 76.2836 23.9121C76.0346 24.3167 75.739 24.589 75.3966 24.729C75.0543 24.8535 74.7742 24.8535 74.5564 24.729C73.8872 24.34 73.187 24.0366 72.4557 23.8187C71.7398 23.6009 71.0863 23.4764 70.495 23.4453C70.1371 23.4297 69.8725 23.4608 69.7014 23.5386C69.5303 23.6164 69.4057 23.7643 69.3279 23.9821C69.1879 24.4489 69.3357 24.7835 69.7714 24.9858C70.3783 25.2659 71.0785 25.5382 71.8721 25.8027C72.6657 26.0517 73.4437 26.3085 74.2062 26.573C75.1555 26.9153 75.8168 27.3899 76.1902 27.9968C76.5793 28.6037 76.7038 29.3195 76.5637 30.1442C76.377 31.249 75.8168 32.0348 74.8831 32.5017C73.9495 32.9685 72.6268 33.2019 70.9151 33.2019C70.4639 33.2019 70.0126 33.1629 69.5613 33.0852C69.1101 33.0229 68.6821 32.9218 68.2776 32.7817C67.8731 32.6573 67.4996 32.5094 67.1572 32.3383ZM90.7805 29.514C89.8313 29.5607 88.8665 29.5996 87.8862 29.6307C87.8395 29.8174 87.7695 30.0198 87.6761 30.2376C87.5982 30.4554 87.5205 30.6733 87.4427 30.8911C87.3648 31.1089 87.2793 31.319 87.186 31.5213C87.1081 31.7081 87.0459 31.8637 86.9993 31.9881C86.7813 32.5327 86.5012 32.8907 86.159 33.0618C85.8166 33.233 85.3964 33.2719 84.8985 33.1785C84.3694 33.0696 84.0193 32.8595 83.8482 32.5483C83.6925 32.2526 83.6769 31.8714 83.8015 31.4046C84.066 30.3776 84.385 29.2028 84.7585 27.8801C85.132 26.5419 85.5131 25.1881 85.9022 23.8187C86.3067 22.4494 86.7035 21.1345 87.0926 19.8741C87.4971 18.6137 87.855 17.5244 88.1663 16.6063C88.2441 16.404 88.3685 16.2251 88.5398 16.0695C88.7265 15.8983 88.9287 15.7971 89.1466 15.766C89.3801 15.7193 89.6523 15.6882 89.9636 15.6727C90.2747 15.6415 90.5938 15.626 90.9206 15.626C91.2473 15.6104 91.5662 15.6104 91.8776 15.626C92.2043 15.6415 92.4844 15.6649 92.7178 15.696C93.2001 15.7738 93.5269 16.0928 93.6982 16.653C94.0093 17.6178 94.3438 18.7226 94.7018 19.9674C95.0753 21.1967 95.4409 22.4727 95.7989 23.7954C96.1723 25.1025 96.5302 26.4018 96.8726 27.6934C97.2148 28.9849 97.5182 30.1519 97.7829 31.1945C97.9073 31.677 97.8996 32.0892 97.7595 32.4316C97.6195 32.7895 97.2927 33.0385 96.7792 33.1785C96.4991 33.2563 96.2578 33.303 96.0556 33.3186C95.8689 33.3497 95.6976 33.3342 95.5421 33.2719C95.3865 33.2096 95.2464 33.0929 95.122 32.9218C95.013 32.7661 94.8963 32.525 94.7719 32.1982C94.7096 32.0271 94.6318 31.817 94.5385 31.568C94.4451 31.319 94.3438 31.0622 94.235 30.7977C94.1416 30.5333 94.0404 30.2686 93.9316 30.0041C93.8382 29.7397 93.7526 29.5063 93.6748 29.3039C92.6945 29.3817 91.7296 29.4517 90.7805 29.514ZM89.3801 24.6357C89.1933 25.2892 89.0143 25.9039 88.8432 26.4796C89.4501 26.4485 90.1191 26.4174 90.8505 26.3863C91.5818 26.3551 92.251 26.324 92.8579 26.2929C92.7022 25.7327 92.5311 25.1258 92.3444 24.4723C92.1577 23.8187 91.9709 23.1652 91.7842 22.5116C91.6129 21.8581 91.4418 21.2279 91.2707 20.621C91.115 20.0141 90.9827 19.4617 90.8739 18.9638C90.7493 19.4928 90.6015 20.0764 90.4304 20.7144C90.2747 21.3368 90.1036 21.9826 89.9169 22.6517C89.7456 23.3208 89.5668 23.9821 89.3801 24.6357ZM102.841 26.5263C102.81 27.46 102.779 28.3625 102.748 29.2339C102.732 30.1052 102.709 30.8678 102.678 31.5213C102.647 32.0504 102.491 32.4627 102.211 32.7584C101.931 33.0541 101.526 33.2175 100.997 33.2486C100.406 33.2796 99.9781 33.1475 99.7136 32.8518C99.449 32.5717 99.2935 32.1905 99.2468 31.7081C99.2156 31.4123 99.1845 31.0156 99.1534 30.5177C99.1378 30.0041 99.1145 29.4362 99.0834 28.8137C99.0678 28.1913 99.0445 27.5455 99.0134 26.8764C98.9978 26.1918 98.9822 25.5304 98.9667 24.8924C98.9511 24.2544 98.9355 23.6631 98.92 23.1185C98.92 22.5739 98.92 22.1304 98.92 21.7881C98.92 21.6013 98.9434 21.4224 98.9901 21.2512C99.0522 21.0645 99.1534 20.9089 99.2935 20.7844C99.4335 20.6599 99.628 20.5587 99.877 20.4809C100.142 20.4031 100.476 20.3642 100.881 20.3642C101.628 20.3642 102.133 20.5043 102.398 20.7844C102.678 21.0645 102.826 21.4068 102.841 21.8114C102.841 22.0759 102.841 22.2627 102.841 22.3716C102.841 22.4805 102.841 22.5583 102.841 22.605C102.857 22.6517 102.865 22.6906 102.865 22.7217C102.865 22.7373 102.865 22.7839 102.865 22.8617C103.051 22.5817 103.293 22.3016 103.588 22.0215C103.899 21.7414 104.242 21.4924 104.615 21.2745C104.989 21.0567 105.378 20.87 105.782 20.7144C106.202 20.5432 106.623 20.4343 107.043 20.3876C107.478 20.3253 107.891 20.3798 108.28 20.551C108.684 20.7066 108.941 21.0489 109.05 21.578C109.097 21.827 109.12 22.1071 109.12 22.4183C109.136 22.7139 109.105 23.0018 109.027 23.2819C108.949 23.5464 108.824 23.7721 108.653 23.9588C108.482 24.1299 108.241 24.2155 107.93 24.2155C106.918 24.2778 105.977 24.4879 105.105 24.8457C104.234 25.2036 103.487 25.7638 102.865 26.5263H102.841ZM114.008 31.5213C113.993 32.0815 113.891 32.5017 113.705 32.7817C113.518 33.0618 113.152 33.2175 112.608 33.2486C112.001 33.2796 111.55 33.1552 111.254 32.8751C110.958 32.595 110.787 32.2059 110.74 31.7081C110.663 30.8678 110.593 29.8251 110.53 28.5803C110.484 27.3355 110.437 26.0206 110.39 24.6357C110.344 23.2508 110.305 21.8581 110.274 20.4576C110.258 19.0571 110.25 17.7967 110.25 16.6763C110.25 16.4896 110.274 16.3107 110.32 16.1395C110.367 15.9528 110.46 15.7971 110.6 15.6727C110.74 15.5482 110.935 15.447 111.184 15.3692C111.433 15.2914 111.76 15.2525 112.164 15.2525C112.538 15.2525 112.841 15.2914 113.075 15.3692C113.308 15.447 113.495 15.5482 113.635 15.6727C113.775 15.7971 113.868 15.9528 113.915 16.1395C113.977 16.3107 114.008 16.4974 114.008 16.6997C114.024 17.2599 114.032 17.8901 114.032 18.5903C114.047 19.2905 114.055 20.0297 114.055 20.8077C114.071 21.5858 114.078 22.3716 114.078 23.1652C114.078 23.9588 114.078 24.729 114.078 25.476C115.027 24.6979 116.062 23.8888 117.183 23.0485C118.319 22.1926 119.423 21.3913 120.497 20.6443C120.871 20.3798 121.229 20.2475 121.571 20.2475C121.913 20.232 122.248 20.4109 122.574 20.7844C123.026 21.329 123.259 21.8114 123.275 22.2315C123.306 22.6517 123.041 23.0796 122.481 23.5153C121.999 23.8888 121.516 24.2622 121.034 24.6357C120.552 25.0091 120.061 25.3748 119.563 25.7327C119.859 26.1995 120.17 26.713 120.497 27.2732C120.824 27.8178 121.127 28.3469 121.407 28.8604C121.703 29.3583 121.96 29.8097 122.178 30.2142C122.411 30.6187 122.567 30.9222 122.644 31.1245C122.816 31.5603 122.862 31.9337 122.784 32.2449C122.707 32.5717 122.396 32.844 121.851 33.0618C121.415 33.2486 121.018 33.3109 120.66 33.2486C120.318 33.1863 119.991 32.9295 119.68 32.4783C119.54 32.276 119.353 31.9725 119.12 31.568C118.887 31.1479 118.638 30.7044 118.373 30.2376C118.109 29.7707 117.844 29.3116 117.579 28.8604C117.331 28.3936 117.12 28.0045 116.949 27.6934C116.389 28.0358 115.868 28.3625 115.385 28.6737C114.903 28.9849 114.452 29.2728 114.032 29.5373L114.008 31.5213Z" fill="black"/>
</g>
<defs>
<clipPath id="clip0_45_2157">
<rect width="124" height="44" fill="white" transform="translate(0.136719 0.976562)"/>
</clipPath>
</defs>
</svg>
